<svg width="20" height="20" viewBox="0 0 20 20" fill="none" xmlns="http://www.w3.org/2000/svg">
<g id="Image">
<path id="Stroke 1" fill-rule="evenodd" clip-rule="evenodd" d="M18.4427 6.24149V13.7123C18.4427 16.4807 16.7102 18.4332 13.9418 18.4332H6.01266C3.24433 18.4332 1.521 16.4807 1.521 13.7123V6.24149C1.521 3.47316 3.2535 1.52158 6.01266 1.52158H13.9418C16.7102 1.52158 18.4427 3.47316 18.4427 6.24149Z" stroke="black" stroke-opacity="0.4" stroke-width="1.5" stroke-linecap="round" stroke-linejoin="round"/>
<path id="Stroke 3" d="M3.84131 14.0628L5.24289 12.5842C5.74798 12.0507 6.59589 12.0479 7.10556 12.5768L7.91681 13.4046C8.46406 13.9628 9.37431 13.9225 9.87023 13.3184L11.9135 10.8333C12.5001 10.1193 13.5763 10.0753 14.2189 10.738L16.1219 12.7015" stroke="black" stroke-opacity="0.4" stroke-width="1.5" stroke-linecap="round" stroke-linejoin="round"/>
<path id="Stroke 5" fill-rule="evenodd" clip-rule="evenodd" d="M8.45401 7.37303C8.45401 8.26036 7.73351 8.98086 6.84617 8.98086C5.95884 8.98086 5.23926 8.26036 5.23926 7.37303C5.23926 6.4857 5.95884 5.7652 6.84617 5.7652C7.73351 5.7652 8.45401 6.4857 8.45401 7.37303Z" stroke="black" stroke-opacity="0.4" stroke-width="1.5" stroke-linecap="round" stroke-linejoin="round"/>
</g>
</svg>
