<svg width="20" height="20" viewBox="0 0 20 20" fill="none" xmlns="http://www.w3.org/2000/svg">
<path fill-rule="evenodd" clip-rule="evenodd" d="M9.24634 14.9673C9.49001 14.9887 9.74121 15 10.0001 15C14.091 15 17.5001 10 17.5001 10C17.5001 10 16.9421 9.18158 16.0067 8.20697L9.24634 14.9673Z" fill="#979797"/>
<path fill-rule="evenodd" clip-rule="evenodd" d="M12.0876 5.41238C11.423 5.15579 10.7221 5 10 5C4.54545 5 2.5 10 2.5 10C2.5 10 3.12505 11.5279 4.60551 12.8945L7.5 10C7.5 8.61929 8.61929 7.5 10 7.5L12.0876 5.41238Z" fill="#979797"/>
<rect opacity="0.3" x="4.25" y="15.3625" width="15.8333" height="1.66667" transform="rotate(-45 4.25 15.3625)" fill="#979797"/>
</svg>
