<svg width="20" height="20" viewBox="0 0 20 20" fill="none" xmlns="http://www.w3.org/2000/svg">
<path d="M13.7498 10V4.58334C13.7498 2.51228 12.0709 0.833344 9.99984 0.833344C7.92875 0.833344 6.24984 2.51228 6.24984 4.58334V10C6.24984 12.0711 7.92875 13.75 9.99984 13.75C12.0709 13.75 13.7498 12.0711 13.7498 10Z" fill="white"/>
<path d="M3.74984 8.75001C4.21007 8.75001 4.58317 9.12311 4.58317 9.58334C4.58317 12.5749 7.00828 15 9.99984 15C12.9914 15 15.4165 12.5749 15.4165 9.58334C15.4165 9.12311 15.7896 8.75001 16.2498 8.75001C16.7101 8.75001 17.0832 9.12311 17.0832 9.58334C17.0832 13.2134 14.3525 16.2057 10.8332 16.6182V18.3333C10.8332 18.7936 10.4601 19.1667 9.99984 19.1667C9.5396 19.1667 9.1665 18.7936 9.1665 18.3333V16.6182C5.64719 16.2057 2.9165 13.2134 2.9165 9.58334C2.9165 9.12311 3.2896 8.75001 3.74984 8.75001Z" fill="white"/>
</svg>
