<svg width="26" height="26" viewBox="0 0 26 26" fill="none" xmlns="http://www.w3.org/2000/svg">
<g clip-path="url(#clip0_0_6)">
<g filter="url(#filter0_d_0_6)">
<path opacity="0.9" fill-rule="evenodd" clip-rule="evenodd" d="M7.42858 1.08334C11.1429 1.08334 13 3.5595 13 3.5595C13 3.5595 14.8572 1.08334 18.5714 1.08334C22.9048 1.08334 26 4.48808 26 8.82146C26 13.7738 21.9528 18.1885 18.2619 21.5119C15.9833 23.5637 14.2381 24.9167 13 24.9167C11.7619 24.9167 9.96729 23.5534 7.73813 21.5119C4.10986 18.1892 0 13.7738 0 8.82146C0 4.48808 3.09527 1.08334 7.42858 1.08334Z" fill="white" fill-opacity="0.9"/>
</g>
<path opacity="0.03" fill-rule="evenodd" clip-rule="evenodd" d="M1.11645 13.4021C2.58635 16.4934 5.27326 19.2547 7.73792 21.5119C9.96709 23.5534 11.7618 24.9166 12.9998 24.9166C14.2379 24.9166 15.983 23.5636 18.2618 21.5119C21.9527 18.1885 25.9998 13.7737 25.9998 8.82139C25.9998 8.71315 25.9979 8.60559 25.9941 8.49861C23.6068 15.2123 15.0783 21.2024 12.6905 21.2024C10.911 21.2024 5.08963 17.8757 1.11645 13.4021Z" fill="#161823"/>
</g>
<defs>
<filter id="filter0_d_0_6" x="-1.48572" y="0.340477" width="28.9714" height="26.8048" filterUnits="userSpaceOnUse" color-interpolation-filters="sRGB">
<feFlood flood-opacity="0" result="BackgroundImageFix"/>
<feColorMatrix in="SourceAlpha" type="matrix" values="0 0 0 0 0 0 0 0 0 0 0 0 0 0 0 0 0 0 127 0" result="hardAlpha"/>
<feOffset dy="0.742858"/>
<feGaussianBlur stdDeviation="0.742858"/>
<feColorMatrix type="matrix" values="0 0 0 0 0 0 0 0 0 0 0 0 0 0 0 0 0 0 0.15 0"/>
<feBlend mode="normal" in2="BackgroundImageFix" result="effect1_dropShadow_0_6"/>
<feBlend mode="normal" in="SourceGraphic" in2="effect1_dropShadow_0_6" result="shape"/>
</filter>
<clipPath id="clip0_0_6">
<rect width="26" height="26" fill="white"/>
</clipPath>
</defs>
</svg>
