<svg width="21" height="21" viewBox="0 0 21 21" fill="none" xmlns="http://www.w3.org/2000/svg">
<g clip-path="url(#clip0_50_274)">
<path fill-rule="evenodd" clip-rule="evenodd" d="M1.22778 10.5C1.22778 8.04084 2.20467 5.68242 3.94355 3.94355C5.68242 2.20467 8.04084 1.22778 10.5 1.22778C12.9591 1.22778 15.3175 2.20467 17.0564 3.94355C18.7953 5.68242 19.7722 8.04084 19.7722 10.5C19.7722 12.9591 18.7953 15.3175 17.0564 17.0564C15.3175 18.7953 12.9591 19.7722 10.5 19.7722C8.04084 19.7722 5.68242 18.7953 3.94355 17.0564C2.20467 15.3175 1.22778 12.9591 1.22778 10.5ZM10.5 2.55778C8.39358 2.55778 6.37345 3.39455 4.884 4.884C3.39455 6.37345 2.55778 8.39358 2.55778 10.5C2.55778 12.6064 3.39455 14.6265 4.884 16.116C6.37345 17.6054 8.39358 18.4422 10.5 18.4422C12.6064 18.4422 14.6265 17.6054 16.116 16.116C17.6054 14.6265 18.4422 12.6064 18.4422 10.5C18.4422 8.39358 17.6054 6.37345 16.116 4.884C14.6265 3.39455 12.6064 2.55778 10.5 2.55778ZM13.7956 7.20578C13.9268 7.33705 14.0005 7.51507 14.0005 7.70068C14.0005 7.8863 13.9268 8.06431 13.7956 8.19558L11.4898 10.5L13.7956 12.8044C13.927 12.9358 14.0009 13.1141 14.0009 13.3C14.0009 13.4859 13.927 13.6641 13.7956 13.7956C13.6641 13.927 13.4859 14.0009 13.3 14.0009C13.1141 14.0009 12.9358 13.927 12.8044 13.7956L10.5 11.4898L8.19558 13.7956C8.1305 13.8607 8.05324 13.9123 7.9682 13.9475C7.88317 13.9827 7.79203 14.0009 7.69998 14.0009C7.60794 14.0009 7.5168 13.9827 7.43177 13.9475C7.34673 13.9123 7.26947 13.8607 7.20438 13.7956C7.1393 13.7305 7.08767 13.6532 7.05245 13.5682C7.01723 13.4832 6.9991 13.392 6.9991 13.3C6.9991 13.2079 7.01723 13.1168 7.05245 13.0318C7.08767 12.9467 7.1393 12.8695 7.20438 12.8044L9.51018 10.5L7.20438 8.19558C7.07294 8.06414 6.9991 7.88587 6.9991 7.69998C6.9991 7.5141 7.07294 7.33582 7.20438 7.20438C7.33582 7.07294 7.5141 6.9991 7.69998 6.9991C7.88587 6.9991 8.06414 7.07294 8.19558 7.20438L10.5 9.51018L12.8044 7.20438C12.8694 7.13919 12.9467 7.08747 13.0317 7.05219C13.1167 7.0169 13.2079 6.99873 13.3 6.99873C13.3921 6.99873 13.4832 7.0169 13.5683 7.05219C13.6533 7.08747 13.7306 7.14059 13.7956 7.20578Z" fill="#E70C0C" stroke="#E70C0C" stroke-width="0.5"/>
</g>
<defs>
<clipPath id="clip0_50_274">
<rect width="21" height="21" fill="white"/>
</clipPath>
</defs>
</svg>
