<svg width="24" height="24" viewBox="0 0 24 24" fill="none" xmlns="http://www.w3.org/2000/svg">
<path fill-rule="evenodd" clip-rule="evenodd" d="M17.6378 7.1099V7.1099C17.2648 7.1099 16.9268 6.8949 16.7678 6.5589C16.4808 5.9509 16.1158 5.1739 15.8998 4.7509C15.5808 4.1219 15.0638 3.7559 14.3478 3.7509C14.3358 3.7499 9.66376 3.7499 9.65176 3.7509C8.93576 3.7559 8.41976 4.1219 8.09976 4.7509C7.88476 5.1739 7.51976 5.9509 7.23276 6.5589C7.07376 6.8949 6.73476 7.1099 6.36276 7.1099V7.1099C4.36676 7.1099 2.74976 8.7269 2.74976 10.7219V16.6579C2.74976 18.6519 4.36676 20.2699 6.36276 20.2699H17.6378C19.6328 20.2699 21.2498 18.6519 21.2498 16.6579V10.7219C21.2498 8.7269 19.6328 7.1099 17.6378 7.1099Z" stroke="#E61E79" stroke-width="1.5" stroke-linecap="round" stroke-linejoin="round"/>
<path fill-rule="evenodd" clip-rule="evenodd" d="M8.82139 13.3345C8.82039 15.0875 10.2514 16.5215 12.0014 16.5205C13.7484 16.5185 15.1754 15.0905 15.1784 13.3415C15.1814 11.5855 13.7554 10.1545 12.0034 10.1525C10.2414 10.1505 8.80739 11.6055 8.82139 13.3345Z" stroke="#E61E79" stroke-width="1.5" stroke-linecap="round" stroke-linejoin="round"/>
</svg>
