<svg width="20" height="19" viewBox="0 0 20 19" fill="none" xmlns="http://www.w3.org/2000/svg">
<path fill-rule="evenodd" clip-rule="evenodd" d="M15.638 4.10975C15.265 4.10975 14.927 3.89475 14.768 3.55875C14.481 2.95075 14.116 2.17375 13.9 1.75075C13.581 1.12175 13.064 0.75575 12.348 0.75075C12.336 0.74975 7.664 0.74975 7.652 0.75075C6.936 0.75575 6.42 1.12175 6.1 1.75075C5.885 2.17375 5.52 2.95075 5.233 3.55875C5.074 3.89475 4.735 4.10975 4.363 4.10975C2.367 4.10975 0.75 5.72675 0.75 7.72175V13.6578C0.75 15.6518 2.367 17.2698 4.363 17.2698H15.638C17.633 17.2698 19.25 15.6518 19.25 13.6578V7.72175C19.25 5.72675 17.633 4.10975 15.638 4.10975Z" fill="#1C1565" stroke="white" stroke-width="1.5" stroke-linecap="round" stroke-linejoin="round"/>
<path fill-rule="evenodd" clip-rule="evenodd" d="M6.82139 10.3343C6.82039 12.0873 8.25139 13.5213 10.0014 13.5203C11.7484 13.5183 13.1754 12.0903 13.1784 10.3413C13.1814 8.58535 11.7554 7.15435 10.0034 7.15235C8.24139 7.15035 6.80739 8.60535 6.82139 10.3343Z" fill="#1C1565" stroke="white" stroke-width="1.5" stroke-linecap="round" stroke-linejoin="round"/>
<path d="M14.9025 7.99497C14.8059 7.98505 14.7105 7.95984 14.6036 7.91682C14.4847 7.86401 14.3818 7.79682 14.2823 7.69574C14.1035 7.50558 14 7.2569 14 7.00036C14 6.86409 14.0279 6.72904 14.0823 6.60669C14.1368 6.48273 14.2014 6.37817 14.3182 6.26443C14.407 6.18706 14.498 6.12481 14.6224 6.07001C14.9913 5.92384 15.4301 6.01118 15.7043 6.28529C15.7865 6.36626 15.8557 6.46398 15.8941 6.54639L15.9169 6.60482C15.9721 6.72904 16 6.86409 16 7.00036C16 7.2621 15.8978 7.50416 15.7081 7.70565C15.5442 7.87068 15.3289 7.97218 15.0992 7.99497L15 7.99988L14.9025 7.99497Z" fill="#1C1565"/>
</svg>
