<svg width="21" height="18" viewBox="0 0 21 18" fill="none" xmlns="http://www.w3.org/2000/svg">
<path fill-rule="evenodd" clip-rule="evenodd" d="M20 0.25H1L0.898229 0.256847C0.532154 0.306509 0.25 0.620304 0.25 1C0.25 1.41421 0.585786 1.75 1 1.75H20L20.1018 1.74315C20.4678 1.69349 20.75 1.3797 20.75 1C20.75 0.585786 20.4142 0.25 20 0.25ZM1 8.25H20C20.4142 8.25 20.75 8.58579 20.75 9C20.75 9.3797 20.4678 9.69349 20.1018 9.74315L20 9.75H1C0.585786 9.75 0.25 9.41421 0.25 9C0.25 8.6203 0.532154 8.30651 0.898229 8.25685L1 8.25ZM1 16.25H20C20.4142 16.25 20.75 16.5858 20.75 17C20.75 17.3797 20.4678 17.6935 20.1018 17.7432L20 17.75H1C0.585786 17.75 0.25 17.4142 0.25 17C0.25 16.6203 0.532154 16.3065 0.898229 16.2568L1 16.25Z" fill="#200E32"/>
<path d="M1 0.25V0H0.9916L0.983219 0.00056383L1 0.25ZM0.898229 0.256847L0.881449 0.00741044L0.873006 0.00797839L0.864622 0.00911584L0.898229 0.256847ZM20 1.75V2H20.0084L20.0168 1.99944L20 1.75ZM20.1018 1.74315L20.1186 1.99259L20.127 1.99202L20.1354 1.99088L20.1018 1.74315ZM1 8.25V8H0.9916L0.98322 8.00056L1 8.25ZM20.1018 9.74315L20.1186 9.99259L20.127 9.99202L20.1354 9.99088L20.1018 9.74315ZM20 9.75V10H20.0084L20.0168 9.99944L20 9.75ZM0.898229 8.25685L0.881449 8.00741L0.873007 8.00798L0.864622 8.00912L0.898229 8.25685ZM1 16.25V16H0.991599L0.983217 16.0006L1 16.25ZM20.1018 17.7432L20.1186 17.9926L20.127 17.992L20.1354 17.9909L20.1018 17.7432ZM20 17.75V18H20.0084L20.0168 17.9994L20 17.75ZM0.898229 16.2568L0.881447 16.0074L0.873006 16.008L0.864622 16.0091L0.898229 16.2568ZM1 0.5H20V0H1V0.5ZM0.91501 0.506283L1.01678 0.499436L0.983219 0.00056383L0.881449 0.00741044L0.91501 0.506283ZM0.5 1C0.5 0.747074 0.688031 0.537653 0.931837 0.504577L0.864622 0.00911584C0.376277 0.0753655 0 0.493534 0 1H0.5ZM1 1.5C0.723858 1.5 0.5 1.27614 0.5 1H0C0 1.55228 0.447715 2 1 2V1.5ZM20 1.5H1V2H20V1.5ZM20.085 1.49372L19.9832 1.50056L20.0168 1.99944L20.1186 1.99259L20.085 1.49372ZM20.5 1C20.5 1.25293 20.312 1.46235 20.0682 1.49542L20.1354 1.99088C20.6237 1.92463 21 1.50647 21 1H20.5ZM20 0.5C20.2761 0.5 20.5 0.723858 20.5 1H21C21 0.447715 20.5523 0 20 0V0.5ZM20 8H1V8.5H20V8ZM21 9C21 8.44772 20.5523 8 20 8V8.5C20.2761 8.5 20.5 8.72386 20.5 9H21ZM20.1354 9.99088C20.6237 9.92463 21 9.50647 21 9H20.5C20.5 9.25293 20.312 9.46235 20.0682 9.49542L20.1354 9.99088ZM20.0168 9.99944L20.1186 9.99259L20.085 9.49372L19.9832 9.50056L20.0168 9.99944ZM1 10H20V9.5H1V10ZM0 9C0 9.55228 0.447715 10 1 10V9.5C0.723858 9.5 0.5 9.27614 0.5 9H0ZM0.864622 8.00912C0.376277 8.07537 0 8.49353 0 9H0.5C0.5 8.74707 0.688031 8.53765 0.931837 8.50458L0.864622 8.00912ZM0.98322 8.00056L0.881449 8.00741L0.91501 8.50628L1.01678 8.49944L0.98322 8.00056ZM20 16H1V16.5H20V16ZM21 17C21 16.4477 20.5523 16 20 16V16.5C20.2761 16.5 20.5 16.7239 20.5 17H21ZM20.1354 17.9909C20.6237 17.9246 21 17.5065 21 17H20.5C20.5 17.2529 20.312 17.4623 20.0682 17.4954L20.1354 17.9909ZM20.0168 17.9994L20.1186 17.9926L20.085 17.4937L19.9832 17.5006L20.0168 17.9994ZM1 18H20V17.5H1V18ZM0 17C0 17.5523 0.447715 18 1 18V17.5C0.723858 17.5 0.5 17.2761 0.5 17H0ZM0.864622 16.0091C0.376277 16.0754 0 16.4935 0 17H0.5C0.5 16.7471 0.688031 16.5377 0.931836 16.5046L0.864622 16.0091ZM0.983217 16.0006L0.881447 16.0074L0.915012 16.5063L1.01678 16.4994L0.983217 16.0006Z" fill="#200E32"/>
</svg>
