<svg width="18" height="18" viewBox="0 0 18 18" fill="none" xmlns="http://www.w3.org/2000/svg">
<path d="M17.0999 8.55C17.103 9.73787 16.8255 10.9097 16.2899 11.97C15.6549 13.2405 14.6787 14.3092 13.4707 15.0563C12.2626 15.8034 10.8704 16.1994 9.44997 16.2C8.26209 16.2031 7.09028 15.9255 6.02998 15.39L0.899997 17.1L2.60999 11.97C2.07443 10.9097 1.7969 9.73787 1.79999 8.55C1.80054 7.12958 2.19654 5.73737 2.94364 4.5293C3.69073 3.32124 4.75941 2.34503 6.02998 1.71002C7.09028 1.17446 8.26209 0.896925 9.44997 0.900022H9.89996C11.7759 1.00351 13.5477 1.7953 14.8762 3.12379C16.2047 4.45227 16.9964 6.22409 17.0999 8.1V8.55Z" stroke="#9597A1" stroke-width="1.71875" stroke-linecap="round" stroke-linejoin="round"/>
</svg>
