<svg width="19" height="19" viewBox="0 0 19 19" fill="none" xmlns="http://www.w3.org/2000/svg">
<path d="M5.18168 18.1363H2.59079C2.13269 18.1363 1.69336 17.9543 1.36943 17.6304C1.04551 17.3064 0.86353 16.8671 0.86353 16.409V10.3636C0.86353 9.90549 1.04551 9.46615 1.36943 9.14223C1.69336 8.81831 2.13269 8.63633 2.59079 8.63633H5.18168M11.2271 6.90907V3.45455C11.2271 2.7674 10.9541 2.1084 10.4682 1.62251C9.98235 1.13662 9.32335 0.863656 8.6362 0.863656L5.18168 8.63633V18.1363H14.9234C15.34 18.141 15.7442 17.995 16.0616 17.7252C16.379 17.4554 16.5882 17.08 16.6507 16.6681L17.8425 8.89542C17.8801 8.64786 17.8634 8.3951 17.7936 8.15464C17.7238 7.91418 17.6025 7.69177 17.4382 7.50282C17.2739 7.31388 17.0705 7.16291 16.842 7.06039C16.6136 6.95786 16.3656 6.90623 16.1152 6.90907H11.2271Z" stroke="#E61E79" stroke-width="1.66719" stroke-linecap="round" stroke-linejoin="round"/>
</svg>
