<svg width="22" height="22" viewBox="0 0 22 22" fill="none" xmlns="http://www.w3.org/2000/svg">
<path fill-rule="evenodd" clip-rule="evenodd" d="M19.4427 7.24149V14.7123C19.4427 17.4807 17.7102 19.4332 14.9418 19.4332H7.01266C4.24433 19.4332 2.521 17.4807 2.521 14.7123V7.24149C2.521 4.47316 4.2535 2.52158 7.01266 2.52158H14.9418C17.7102 2.52158 19.4427 4.47316 19.4427 7.24149Z" stroke="black" stroke-opacity="0.4" stroke-width="1.5" stroke-linecap="round" stroke-linejoin="round"/>
<path d="M4.84131 15.0628L6.24289 13.5842C6.74798 13.0507 7.59589 13.0479 8.10556 13.5768L8.91681 14.4046C9.46406 14.9628 10.3743 14.9225 10.8702 14.3184L12.9135 11.8333C13.5001 11.1193 14.5763 11.0753 15.2189 11.738L17.1219 13.7015" stroke="black" stroke-opacity="0.4" stroke-width="1.5" stroke-linecap="round" stroke-linejoin="round"/>
<path fill-rule="evenodd" clip-rule="evenodd" d="M9.45401 8.37303C9.45401 9.26036 8.73351 9.98086 7.84617 9.98086C6.95884 9.98086 6.23926 9.26036 6.23926 8.37303C6.23926 7.4857 6.95884 6.7652 7.84617 6.7652C8.73351 6.7652 9.45401 7.4857 9.45401 8.37303Z" stroke="black" stroke-opacity="0.4" stroke-width="1.5" stroke-linecap="round" stroke-linejoin="round"/>
</svg>
