<svg width="10" height="17" viewBox="0 0 10 17" fill="none" xmlns="http://www.w3.org/2000/svg">
<g clip-path="url(#clip0_44_1483)">
<path d="M9.06274 14.8527C9.28438 15.0955 9.40752 15.4151 9.39521 15.7474C9.39521 16.0797 9.27207 16.3865 9.03811 16.6294C8.81647 16.8594 8.50863 17 8.18848 17C7.86833 17 7.56049 16.885 7.32654 16.6549L0.357092 9.42032C0.24627 9.30528 0.160076 9.16468 0.0985081 9.01129C0.0369405 8.85791 0 8.69174 0 8.52558C0 8.35941 0.0369405 8.19325 0.0985081 8.02708C0.160076 7.8737 0.24627 7.7331 0.357092 7.61806L7.32654 0.383459C7.43736 0.268421 7.57281 0.166166 7.72057 0.102256C7.88064 0.0383459 8.04072 0 8.2008 0C8.36087 0 8.53326 0.0255639 8.68102 0.0894738C8.82879 0.153384 8.96423 0.255639 9.08737 0.370677C9.19819 0.485715 9.28438 0.639099 9.34595 0.792482C9.41983 0.945866 9.44446 1.11203 9.44446 1.29098C9.44446 1.45715 9.40752 1.62331 9.34595 1.77669C9.28438 1.93008 9.18588 2.07068 9.06274 2.1985L2.96756 8.52558L4.12502 9.7143L9.06274 14.8527Z" fill="#181725"/>
</g>
<defs>
<clipPath id="clip0_44_1483">
<rect width="9.05797" height="16.3043" fill="white" transform="scale(1.04267)"/>
</clipPath>
</defs>
</svg>
