<svg width="22" height="22" viewBox="0 0 22 22" fill="none" xmlns="http://www.w3.org/2000/svg">
<path fill-rule="evenodd" clip-rule="evenodd" d="M14.5291 2.29226C15.1075 2.29226 15.685 2.37384 16.2341 2.55809C19.6175 3.65809 20.8367 7.37059 19.8183 10.6156C19.2408 12.2738 18.2966 13.7873 17.06 15.0238C15.2899 16.738 13.3475 18.2597 11.2566 19.5705L11.0274 19.7089L10.7891 19.5613C8.69085 18.2597 6.73743 16.738 4.95085 15.0147C3.72252 13.7781 2.77743 12.2738 2.19077 10.6156C1.15493 7.37059 2.3741 3.65809 5.79418 2.53884C6.06002 2.44718 6.3341 2.38301 6.6091 2.34726H6.7191C6.97668 2.30968 7.23243 2.29226 7.4891 2.29226H7.58993C8.16743 2.30968 8.7266 2.41051 9.26835 2.59476H9.32243C9.3591 2.61218 9.3866 2.63143 9.40493 2.64884C9.60752 2.71393 9.7991 2.78726 9.98243 2.88809L10.3308 3.04393C10.4149 3.08882 10.5094 3.15741 10.5911 3.21669C10.6428 3.25425 10.6894 3.28807 10.7249 3.30976C10.7399 3.31859 10.7551 3.32746 10.7704 3.33641C10.849 3.38229 10.9309 3.43008 10.9999 3.48301C12.0184 2.70476 13.2549 2.28309 14.5291 2.29226ZM16.9674 8.89226C17.3433 8.88218 17.6641 8.58059 17.6916 8.19468V8.08559C17.7191 6.80134 16.9409 5.63809 15.7574 5.18893C15.3816 5.05968 14.9691 5.26226 14.8316 5.64726C14.7033 6.03226 14.9049 6.45393 15.2899 6.59051C15.8775 6.81051 16.2708 7.38893 16.2708 8.02968V8.05809C16.2534 8.26801 16.3166 8.47059 16.4449 8.62643C16.5733 8.78226 16.7658 8.87301 16.9674 8.89226Z" fill="#E61E79"/>
</svg>
