<svg width="25" height="25" viewBox="0 0 25 25" fill="none" xmlns="http://www.w3.org/2000/svg">
<path fill-rule="evenodd" clip-rule="evenodd" d="M18.3282 11.3874C19.9973 11.3874 21.3513 10.0343 21.3513 8.36524C21.3513 6.69614 19.9973 5.34311 18.3282 5.34311" fill="#E61E79"/>
<path d="M18.3282 11.3874C19.9973 11.3874 21.3513 10.0343 21.3513 8.36524C21.3513 6.69614 19.9973 5.34311 18.3282 5.34311" stroke="#E61E79" stroke-width="1.5534" stroke-linecap="round" stroke-linejoin="round"/>
<path fill-rule="evenodd" clip-rule="evenodd" d="M19.7179 14.6716C20.2163 14.706 20.7119 14.7767 21.1998 14.8865C21.8778 15.0192 22.6932 15.2971 22.9835 15.9053C23.1688 16.2949 23.1688 16.7484 22.9835 17.139C22.6942 17.7472 21.8778 18.0241 21.1998 18.1635" fill="#E61E79"/>
<path d="M19.7179 14.6716C20.2163 14.706 20.7119 14.7767 21.1998 14.8865C21.8778 15.0192 22.6932 15.2971 22.9835 15.9053C23.1688 16.2949 23.1688 16.7484 22.9835 17.139C22.6942 17.7472 21.8778 18.0241 21.1998 18.1635" stroke="#E61E79" stroke-width="1.5534" stroke-linecap="round" stroke-linejoin="round"/>
<path fill-rule="evenodd" clip-rule="evenodd" d="M6.55219 11.3874C4.8831 11.3874 3.5291 10.0343 3.5291 8.36524C3.5291 6.69614 4.8831 5.34311 6.55219 5.34311" fill="#E61E79"/>
<path d="M6.55219 11.3874C4.8831 11.3874 3.5291 10.0343 3.5291 8.36524C3.5291 6.69614 4.8831 5.34311 6.55219 5.34311" stroke="#E61E79" stroke-width="1.5534" stroke-linecap="round" stroke-linejoin="round"/>
<path fill-rule="evenodd" clip-rule="evenodd" d="M5.16236 14.6716C4.66392 14.706 4.16835 14.7767 3.68042 14.8865C3.00247 15.0192 2.18702 15.2971 1.89769 15.9053C1.71149 16.2949 1.71149 16.7484 1.89769 17.139C2.18606 17.7472 3.00247 18.0241 3.68042 18.1635" fill="#E61E79"/>
<path d="M5.16236 14.6716C4.66392 14.706 4.16835 14.7767 3.68042 14.8865C3.00247 15.0192 2.18702 15.2971 1.89769 15.9053C1.71149 16.2949 1.71149 16.7484 1.89769 17.139C2.18606 17.7472 3.00247 18.0241 3.68042 18.1635" stroke="#E61E79" stroke-width="1.5534" stroke-linecap="round" stroke-linejoin="round"/>
<path fill-rule="evenodd" clip-rule="evenodd" d="M12.4354 15.3224C15.8175 15.3224 18.7069 15.8342 18.7069 17.8824C18.7069 19.9296 15.8366 20.4605 12.4354 20.4605C9.05229 20.4605 6.16384 19.9487 6.16384 17.9006C6.16384 15.8524 9.03415 15.3224 12.4354 15.3224Z" fill="#E61E79" stroke="#E61E79" stroke-width="1.5534" stroke-linecap="round" stroke-linejoin="round"/>
<path fill-rule="evenodd" clip-rule="evenodd" d="M12.4352 12.401C10.2047 12.401 8.41621 10.6125 8.41621 8.381C8.41621 6.15044 10.2047 4.36199 12.4352 4.36199C14.6658 4.36199 16.4542 6.15044 16.4542 8.381C16.4542 10.6125 14.6658 12.401 12.4352 12.401Z" fill="#E61E79" stroke="#E61E79" stroke-width="1.5534" stroke-linecap="round" stroke-linejoin="round"/>
</svg>
