<svg width="18" height="18" viewBox="0 0 18 18" fill="none" xmlns="http://www.w3.org/2000/svg">
<circle cx="8.68411" cy="5.45852" r="3.58352" stroke="#202023" stroke-width="1.5" stroke-linecap="round" stroke-linejoin="round"/>
<path fill-rule="evenodd" clip-rule="evenodd" d="M3.00001 14.026C2.99905 13.7741 3.05539 13.5253 3.16477 13.2984C3.50802 12.6119 4.47598 12.248 5.27919 12.0833C5.85846 11.9596 6.44573 11.8771 7.03663 11.8361C8.13063 11.74 9.23095 11.74 10.325 11.8361C10.9158 11.8775 11.503 11.9601 12.0824 12.0833C12.8856 12.248 13.8536 12.5775 14.1968 13.2984C14.4168 13.761 14.4168 14.298 14.1968 14.7606C13.8536 15.4814 12.8856 15.8109 12.0824 15.9688C11.5038 16.0976 10.9163 16.1825 10.325 16.2228C9.43453 16.2983 8.53994 16.3121 7.64761 16.264C7.44166 16.264 7.24258 16.264 7.03663 16.2228C6.44747 16.183 5.86224 16.0981 5.28605 15.9688C4.47598 15.8109 3.51489 15.4814 3.16477 14.7606C3.05595 14.531 2.99966 14.2801 3.00001 14.026Z" stroke="#202023" stroke-width="1.5" stroke-linecap="round" stroke-linejoin="round"/>
</svg>
