<svg width="22" height="22" viewBox="0 0 22 22" fill="none" xmlns="http://www.w3.org/2000/svg">
<path d="M12.9581 3.0813L13.7043 3.00667V3.00667L12.9581 3.0813ZM12.8556 2.45914L13.5511 2.17851L13.5511 2.1785L12.8556 2.45914ZM13.1548 4.1908L12.5023 4.56073L12.5023 4.56073L13.1548 4.1908ZM14.291 4.66145L14.0913 3.93854L14.0912 3.93854L14.291 4.66145ZM15.2146 4.01602L14.7646 3.41602L14.752 3.42552L14.7397 3.43555L15.2146 4.01602ZM15.2146 4.01601L15.6646 4.61601L15.6773 4.6065L15.6896 4.59647L15.2146 4.01601ZM15.727 3.64852L16.0204 4.33876L16.0204 4.33876L15.727 3.64852ZM16.5989 3.69201L16.9595 3.03438L16.9595 3.03438L16.5989 3.69201ZM17.0722 4.10866L17.6025 3.57833L17.0722 4.10866ZM17.8912 4.92767L17.3609 5.458L17.3665 5.46365L17.3723 5.46917L17.8912 4.92767ZM17.8912 4.92769L18.4215 4.39736L18.4159 4.39172L18.4101 4.3862L17.8912 4.92769ZM18.3079 5.40093L17.6502 5.76152L17.6502 5.76152L18.3079 5.40093ZM18.3514 6.27287L19.0416 6.56624V6.56624L18.3514 6.27287ZM17.9838 6.78524L17.4034 6.31031L17.4034 6.31031L17.9838 6.78524ZM17.3384 7.7089L16.6155 7.50916V7.50916L17.3384 7.7089ZM17.809 8.84512L18.179 8.1927L18.179 8.1927L17.809 8.84512ZM18.9186 9.04185L18.844 9.78812V9.78812L18.9186 9.04185ZM19.5408 9.14428L19.2601 9.8398V9.8398L19.5408 9.14428ZM20.1266 9.79158L20.8466 9.58154L20.8466 9.58153L20.1266 9.79158ZM20.1266 12.2083L19.4066 11.9983L19.4066 11.9983L20.1266 12.2083ZM19.5407 12.8557L19.8213 13.5513L19.8213 13.5513L19.5407 12.8557ZM18.9187 12.9581L18.844 12.2118L18.844 12.2118L18.9187 12.9581ZM17.8095 13.1547L17.4397 12.5022L17.8095 13.1547ZM17.3388 14.2912L18.0617 14.0913V14.0913L17.3388 14.2912ZM17.984 15.2144L17.4035 15.6894L17.4272 15.7183L17.4537 15.7448L17.984 15.2144ZM17.984 15.2144L18.5645 14.7395L18.5408 14.7106L18.5143 14.6841L17.984 15.2144ZM18.3513 15.7266L19.0416 15.4331L19.0415 15.4331L18.3513 15.7266ZM18.3078 16.5987L17.6503 16.2381L17.6503 16.2381L18.3078 16.5987ZM17.8913 17.0718L17.361 16.5414L17.361 16.5414L17.8913 17.0718ZM17.0722 17.8909L16.5419 17.3606L16.5419 17.3606L17.0722 17.8909ZM16.599 18.3075L16.2384 17.6499L16.2384 17.6499L16.599 18.3075ZM15.727 18.351L16.0204 17.6608L16.0204 17.6608L15.727 18.351ZM15.2147 17.9835L15.6896 17.4031L15.6773 17.393L15.6647 17.3835L15.2147 17.9835ZM15.2147 17.9835L14.7397 18.564L14.752 18.574L14.7647 18.5835L15.2147 17.9835ZM14.291 17.3381L14.4908 16.6152L14.4908 16.6152L14.291 17.3381ZM13.1548 17.8087L12.5024 17.4388L13.1548 17.8087ZM12.9581 18.9184L13.7044 18.9931V18.9931L12.9581 18.9184ZM12.8556 19.5409L13.5511 19.8216L13.5511 19.8216L12.8556 19.5409ZM12.2084 20.1266L12.4185 20.8466H12.4185L12.2084 20.1266ZM9.79152 20.1266L9.58148 20.8466L9.79152 20.1266ZM9.14422 19.5408L9.83974 19.2602L9.83973 19.2602L9.14422 19.5408ZM9.04179 18.9186L8.29551 18.9933L9.04179 18.9186ZM8.84505 17.8091L8.19264 18.179L8.19264 18.179L8.84505 17.8091ZM7.70885 17.3385L7.90859 18.0614H7.90859L7.70885 17.3385ZM6.78515 17.9839L7.23515 18.5839L7.24783 18.5744L7.26008 18.5644L6.78515 17.9839ZM6.78514 17.9839L6.33514 17.3839L6.32247 17.3934L6.31021 17.4035L6.78514 17.9839ZM6.27276 18.3515L6.56611 19.0417L6.56612 19.0417L6.27276 18.3515ZM5.40084 18.308L5.04025 18.9656L5.04026 18.9656L5.40084 18.308ZM4.92756 17.8913L5.45789 17.361L5.45789 17.361L4.92756 17.8913ZM4.10857 17.0723L3.57824 17.6026H3.57824L4.10857 17.0723ZM3.6919 16.599L4.34953 16.2384L4.34953 16.2384L3.6919 16.599ZM3.64841 15.7271L4.33865 16.0205L4.33865 16.0205L3.64841 15.7271ZM4.01593 15.2147L4.5964 15.6896H4.5964L4.01593 15.2147ZM4.66138 14.2911L5.38429 14.4908L4.66138 14.2911ZM4.19074 13.1548L3.82081 13.8073H3.82081L4.19074 13.1548ZM3.08123 12.9581L3.15586 12.2118L3.15586 12.2118L3.08123 12.9581ZM2.45908 12.8557L2.17844 13.5512L2.17845 13.5512L2.45908 12.8557ZM1.87326 12.2084L1.15327 12.4184H1.15327L1.87326 12.2084ZM1.83325 11.5791H2.58325H1.83325ZM1.83325 10.421H1.08325H1.83325ZM1.87329 9.7915L2.59326 10.0016L2.59326 10.0016L1.87329 9.7915ZM2.45899 9.14431L2.1783 8.44882L2.1783 8.44882L2.45899 9.14431ZM3.08134 9.04184V8.29184H3.04393L3.00671 8.29556L3.08134 9.04184ZM3.08134 9.04184V9.79184H3.11875L3.15597 9.78811L3.08134 9.04184ZM4.1912 8.84503L4.56122 9.4974L4.56122 9.49739L4.1912 8.84503ZM4.66176 7.709L5.3847 7.50934L5.3847 7.50934L4.66176 7.709ZM4.01609 6.78498L4.59656 6.31005L4.59656 6.31005L4.01609 6.78498ZM3.6484 6.27234L4.33868 5.97906V5.97906L3.6484 6.27234ZM3.69188 5.40063L3.0342 5.04013L3.69188 5.40063ZM5.40088 3.69158L5.76146 4.34921L5.76146 4.34921L5.40088 3.69158ZM6.2728 3.64809L5.97944 4.33834H5.97944L6.2728 3.64809ZM6.78526 4.01568L7.26019 3.43521V3.43521L6.78526 4.01568ZM7.70874 4.66105L7.50889 5.38393L7.50889 5.38394L7.70874 4.66105ZM8.84517 4.19033L8.1927 3.82049V3.82049L8.84517 4.19033ZM9.0418 3.08118L8.29552 3.00655V3.00655L9.0418 3.08118ZM9.14418 2.45922L8.44863 2.17866L8.44863 2.17866L9.14418 2.45922ZM9.79162 1.8733L9.58166 1.15329V1.15329L9.79162 1.8733ZM12.2083 1.87333L12.4183 1.15334L12.4183 1.15334L12.2083 1.87333ZM13.7043 3.00667C13.6767 2.73081 13.6547 2.4351 13.5511 2.17851L12.1601 2.73977C12.1561 2.72978 12.1625 2.73967 12.1731 2.80962C12.1844 2.88476 12.1947 2.98527 12.2118 3.15593L13.7043 3.00667ZM13.8072 3.82088C13.8235 3.84965 13.8061 3.83594 13.781 3.6798C13.757 3.52982 13.7361 3.32473 13.7043 3.00667L12.2118 3.15593C12.2417 3.4551 12.2672 3.71293 12.3 3.91748C12.3318 4.11587 12.3819 4.3483 12.5023 4.56073L13.8072 3.82088ZM14.0912 3.93854C13.9808 3.96906 13.8637 3.92057 13.8072 3.82088L12.5023 4.56073C12.898 5.25857 13.7175 5.59802 14.4908 5.38436L14.0912 3.93854ZM14.7397 3.43555C14.4923 3.63795 14.3326 3.76825 14.2095 3.85728C14.0814 3.94997 14.0594 3.94735 14.0913 3.93854L14.4908 5.38436C14.7261 5.31932 14.9259 5.19038 15.0887 5.07261C15.2565 4.95118 15.4569 4.78688 15.6896 4.59648L14.7397 3.43555ZM14.7646 3.41601L14.7646 3.41602L15.6646 4.61602L15.6646 4.61601L14.7646 3.41601ZM15.4336 2.95828C15.179 3.06651 14.9543 3.25999 14.7397 3.43554L15.6896 4.59647C15.8223 4.48787 15.9006 4.42407 15.9618 4.37898C16.0187 4.337 16.0303 4.33455 16.0204 4.33876L15.4336 2.95828ZM16.9595 3.03438C16.4894 2.7766 15.9271 2.74855 15.4336 2.95828L16.0204 4.33876C16.0908 4.3088 16.1712 4.31281 16.2383 4.34963L16.9595 3.03438ZM17.6025 3.57833C17.4065 3.3823 17.2022 3.16742 16.9595 3.03438L16.2383 4.34963C16.2289 4.34446 16.2401 4.34805 16.2926 4.39548C16.349 4.44644 16.4206 4.51772 16.5419 4.63899L17.6025 3.57833ZM18.4215 4.39734L17.6025 3.57833L16.5419 4.63899L17.3609 5.458L18.4215 4.39734ZM18.4101 4.3862L18.4101 4.38618L17.3723 5.46917L17.3723 5.46918L18.4101 4.3862ZM18.9655 5.04035C18.8325 4.79773 18.6176 4.59338 18.4215 4.39736L17.3609 5.45802C17.4821 5.57929 17.5534 5.65088 17.6044 5.70726C17.6518 5.75973 17.6554 5.77096 17.6502 5.76152L18.9655 5.04035ZM19.0416 6.56624C19.2513 6.0728 19.2233 5.51046 18.9655 5.04034L17.6502 5.76152C17.6871 5.82868 17.6911 5.90902 17.6611 5.97951L19.0416 6.56624ZM18.5643 7.26017C18.7399 7.0456 18.9334 6.82089 19.0416 6.56624L17.6611 5.97951C17.6653 5.9696 17.6629 5.98114 17.6209 6.03807C17.5758 6.09924 17.512 6.17757 17.4034 6.31031L18.5643 7.26017ZM18.0613 7.90865C18.0525 7.94053 18.0499 7.91852 18.1426 7.79039C18.2316 7.66732 18.3619 7.50756 18.5643 7.26017L17.4034 6.31031C17.213 6.54302 17.0487 6.74334 16.9272 6.9112C16.8095 7.074 16.6805 7.27377 16.6155 7.50916L18.0613 7.90865ZM18.179 8.1927C18.0793 8.13617 18.0308 8.01911 18.0613 7.90865L16.6155 7.50916C16.4018 8.28238 16.7413 9.10185 17.4391 9.49753L18.179 8.1927ZM18.9932 8.29557C18.6751 8.26376 18.47 8.24293 18.32 8.21886C18.1639 8.1938 18.1502 8.17638 18.179 8.1927L17.4391 9.49753C17.6515 9.61799 17.884 9.66807 18.0824 9.69991C18.2869 9.73274 18.5448 9.7582 18.844 9.78812L18.9932 8.29557ZM19.8214 8.44877C19.5648 8.34523 19.2691 8.32315 18.9932 8.29557L18.844 9.78812C19.0146 9.80519 19.1151 9.81546 19.1903 9.82683C19.2602 9.8374 19.2701 9.84382 19.2601 9.8398L19.8214 8.44877ZM20.8466 9.58153C20.6964 9.06685 20.3186 8.64939 19.8214 8.44877L19.2601 9.8398C19.3312 9.86845 19.3851 9.92809 19.4066 10.0016L20.8466 9.58153ZM20.9166 10.4209C20.9166 10.1436 20.924 9.84717 20.8466 9.58154L19.4066 10.0016C19.4036 9.99128 19.409 10.0018 19.4125 10.0724C19.4164 10.1483 19.4166 10.2494 19.4166 10.4209H20.9166ZM20.9166 11.5792V10.4209H19.4166V11.5792H20.9166ZM20.8466 12.4183C20.924 12.1527 20.9166 11.8564 20.9166 11.5792H19.4166C19.4166 11.7507 19.4164 11.8517 19.4125 11.9275C19.409 11.9982 19.4036 12.0086 19.4066 11.9983L20.8466 12.4183ZM19.8213 13.5513C20.3186 13.3506 20.6965 12.9331 20.8466 12.4183L19.4066 11.9983C19.3851 12.0719 19.3312 12.1315 19.2601 12.1602L19.8213 13.5513ZM18.9933 13.7044C19.2691 13.6768 19.5647 13.6547 19.8213 13.5513L19.2601 12.1602C19.2701 12.1561 19.2602 12.1626 19.1903 12.1731C19.1151 12.1845 19.0147 12.1948 18.844 12.2118L18.9933 13.7044ZM18.1794 13.8072C18.1506 13.8235 18.1643 13.8061 18.3204 13.7811C18.4703 13.757 18.6753 13.7362 18.9933 13.7044L18.844 12.2118C18.545 12.2417 18.2872 12.2672 18.0827 12.3C17.8844 12.3318 17.6521 12.3819 17.4397 12.5022L18.1794 13.8072ZM18.0617 14.0913C18.0311 13.9808 18.0796 13.8637 18.1794 13.8072L17.4397 12.5022C16.7416 12.8979 16.4021 13.7177 16.6159 14.4911L18.0617 14.0913ZM18.5645 14.7395C18.3621 14.4922 18.2319 14.3325 18.1429 14.2095C18.0502 14.0815 18.0529 14.0595 18.0617 14.0913L16.6159 14.4911C16.681 14.7263 16.8099 14.926 16.9276 15.0887C17.049 15.2565 17.2132 15.4568 17.4035 15.6894L18.5645 14.7395ZM18.5143 14.6841L18.5143 14.6841L17.4537 15.7448L17.4537 15.7448L18.5143 14.6841ZM19.0415 15.4331C18.9333 15.1786 18.7399 14.954 18.5645 14.7395L17.4035 15.6894C17.5121 15.822 17.5759 15.9003 17.6209 15.9615C17.6629 16.0184 17.6653 16.0299 17.6611 16.02L19.0415 15.4331ZM18.9654 16.9594C19.2233 16.4892 19.2514 15.9267 19.0416 15.4331L17.6611 16.02C17.6911 16.0905 17.6871 16.1709 17.6503 16.2381L18.9654 16.9594ZM18.4217 17.6021C18.6176 17.4062 18.8324 17.2019 18.9654 16.9594L17.6503 16.2381C17.6554 16.2286 17.6518 16.2399 17.6044 16.2923C17.5535 16.3487 17.4822 16.4202 17.361 16.5414L18.4217 17.6021ZM17.6026 18.4212L18.4217 17.6021L17.361 16.5414L16.5419 17.3606L17.6026 18.4212ZM17.6025 18.4212L17.6026 18.4212L16.5419 17.3606L16.5419 17.3606L17.6025 18.4212ZM16.9596 18.9652C17.2022 18.8321 17.4065 18.6173 17.6025 18.4212L16.5419 17.3606C16.4206 17.4818 16.349 17.5531 16.2927 17.6041C16.2402 17.6515 16.229 17.6551 16.2384 17.6499L16.9596 18.9652ZM15.4337 19.0413C15.9271 19.251 16.4895 19.223 16.9596 18.9652L16.2384 17.6499C16.1712 17.6867 16.0909 17.6908 16.0204 17.6608L15.4337 19.0413ZM14.7397 18.564C14.9543 18.7396 15.179 18.933 15.4337 19.0413L16.0204 17.6608C16.0303 17.665 16.0188 17.6626 15.9618 17.6206C15.9007 17.5755 15.8223 17.5117 15.6896 17.4031L14.7397 18.564ZM14.7647 18.5835L14.7647 18.5835L15.6647 17.3835L15.6647 17.3835L14.7647 18.5835ZM14.0913 18.061C14.0594 18.0522 14.0814 18.0496 14.2095 18.1423C14.3326 18.2313 14.4924 18.3616 14.7397 18.564L15.6896 17.4031C15.4569 17.2127 15.2566 17.0484 15.0887 16.9269C14.9259 16.8092 14.7262 16.6802 14.4908 16.6152L14.0913 18.061ZM13.8072 18.1787C13.8638 18.079 13.9808 18.0305 14.0913 18.061L14.4908 16.6152C13.7176 16.4015 12.8981 16.741 12.5024 17.4388L13.8072 18.1787ZM13.7044 18.9931C13.7362 18.675 13.757 18.4698 13.7811 18.3198C13.8061 18.1636 13.8236 18.1499 13.8072 18.1787L12.5024 17.4388C12.3819 17.6513 12.3319 17.8837 12.3 18.0821C12.2672 18.2867 12.2417 18.5446 12.2118 18.8438L13.7044 18.9931ZM13.5511 19.8216C13.6547 19.5649 13.6767 19.2691 13.7044 18.9931L12.2118 18.8438C12.1947 19.0146 12.1844 19.1151 12.1731 19.1903C12.1625 19.2603 12.1561 19.2702 12.1601 19.2602L13.5511 19.8216ZM12.4185 20.8466C12.9331 20.6964 13.3504 20.3187 13.5511 19.8216L12.1601 19.2602C12.1314 19.3312 12.0718 19.3852 11.9983 19.4066L12.4185 20.8466ZM11.5789 20.9166C11.8562 20.9166 12.1528 20.9241 12.4185 20.8466L11.9983 19.4066C12.0086 19.4036 11.9982 19.409 11.9275 19.4126C11.8516 19.4164 11.7505 19.4166 11.5789 19.4166V20.9166ZM10.4208 20.9166H11.5789V19.4166H10.4208V20.9166ZM9.58148 20.8466C9.84711 20.9241 10.1436 20.9166 10.4208 20.9166V19.4166C10.2493 19.4166 10.1483 19.4164 10.0724 19.4126C10.0017 19.409 9.99122 19.4036 10.0016 19.4066L9.58148 20.8466ZM8.44871 19.8215C8.64932 20.3187 9.06678 20.6965 9.58148 20.8466L10.0016 19.4066C9.92803 19.3852 9.86839 19.3312 9.83974 19.2602L8.44871 19.8215ZM8.29551 18.9933C8.32309 19.2691 8.34516 19.5649 8.44871 19.8215L9.83973 19.2602C9.84376 19.2702 9.83734 19.2603 9.82677 19.1903C9.8154 19.1152 9.80513 19.0147 9.78806 18.844L8.29551 18.9933ZM8.19264 18.179C8.17632 18.1503 8.19374 18.164 8.2188 18.3201C8.24287 18.4701 8.2637 18.6752 8.29551 18.9933L9.78806 18.844C9.75814 18.5448 9.73268 18.287 9.69985 18.0824C9.66801 17.884 9.61792 17.6516 9.49746 17.4391L8.19264 18.179ZM7.90859 18.0614C8.01905 18.0309 8.13611 18.0793 8.19264 18.179L9.49746 17.4391C9.10178 16.7413 8.28233 16.4019 7.50912 16.6155L7.90859 18.0614ZM7.26008 18.5644C7.50749 18.362 7.66725 18.2317 7.79033 18.1426C7.91846 18.0499 7.94047 18.0526 7.90859 18.0614L7.50912 16.6155C7.27372 16.6806 7.07395 16.8095 6.91114 16.9273C6.74328 17.0487 6.54295 17.2131 6.31023 17.4035L7.26008 18.5644ZM7.23514 18.5839L7.23515 18.5839L6.33515 17.3839L6.33514 17.3839L7.23514 18.5839ZM6.56612 19.0417C6.82078 18.9335 7.04549 18.74 7.26007 18.5644L6.31021 17.4035C6.17747 17.5121 6.09913 17.5759 6.03796 17.621C5.98103 17.663 5.96949 17.6654 5.97939 17.6612L6.56612 19.0417ZM5.04026 18.9656C5.51037 19.2234 6.07269 19.2514 6.56611 19.0417L5.9794 17.6612C5.90891 17.6912 5.82858 17.6872 5.76142 17.6503L5.04026 18.9656ZM4.39723 18.4216C4.59327 18.6177 4.79762 18.8326 5.04025 18.9656L5.76143 17.6503C5.77086 17.6555 5.75963 17.6519 5.70715 17.6045C5.65077 17.5535 5.57917 17.4822 5.45789 17.361L4.39723 18.4216ZM3.57824 17.6026L4.39723 18.4216L5.45789 17.361L4.6389 16.542L3.57824 17.6026ZM3.03427 16.9596C3.1673 17.2022 3.3822 17.4066 3.57824 17.6026L4.6389 16.542C4.51763 16.4207 4.44634 16.3491 4.39538 16.2927C4.34794 16.2402 4.34435 16.229 4.34953 16.2384L3.03427 16.9596ZM2.95816 15.4337C2.74845 15.9272 2.7765 16.4895 3.03427 16.9596L4.34953 16.2384C4.3127 16.1713 4.3087 16.091 4.33865 16.0205L2.95816 15.4337ZM3.43546 14.7398C3.2599 14.9544 3.0664 15.1791 2.95816 15.4337L4.33865 16.0205C4.33444 16.0304 4.3369 16.0188 4.37888 15.9619C4.42398 15.9007 4.48779 15.8224 4.5964 15.6896L3.43546 14.7398ZM3.93847 14.0913C3.94728 14.0594 3.9499 14.0814 3.85721 14.2096C3.76818 14.3326 3.63788 14.4924 3.43546 14.7398L4.5964 15.6896C4.7868 15.4569 4.95111 15.2566 5.07254 15.0888C5.19031 14.926 5.31925 14.7262 5.38429 14.4908L3.93847 14.0913ZM3.82081 13.8073C3.9205 13.8638 3.96899 13.9808 3.93847 14.0913L5.38429 14.4908C5.59795 13.7176 5.2585 12.8981 4.56067 12.5024L3.82081 13.8073ZM3.0066 13.7044C3.32466 13.7362 3.52976 13.757 3.67974 13.7811C3.83587 13.8061 3.84958 13.8236 3.82081 13.8073L4.56067 12.5024C4.34824 12.382 4.11581 12.3319 3.91742 12.3C3.71287 12.2672 3.45504 12.2418 3.15586 12.2118L3.0066 13.7044ZM2.17845 13.5512C2.43504 13.6547 2.73075 13.6768 3.0066 13.7044L3.15586 12.2118C2.9852 12.1948 2.8847 12.1845 2.80956 12.1731C2.73962 12.1626 2.72973 12.1561 2.73971 12.1602L2.17845 13.5512ZM1.15327 12.4184C1.30342 12.9331 1.68123 13.3506 2.17844 13.5512L2.73971 12.1602C2.66868 12.1315 2.6147 12.0719 2.59326 11.9983L1.15327 12.4184ZM1.08325 11.5791C1.08325 11.8563 1.07579 12.1528 1.15327 12.4184L2.59326 11.9983C2.59627 12.0087 2.59086 11.9982 2.5873 11.9275C2.58347 11.8516 2.58325 11.7506 2.58325 11.5791H1.08325ZM1.08325 10.421L1.08325 11.5791H2.58325L2.58325 10.421H1.08325ZM1.15332 9.5814C1.07578 9.84711 1.08325 10.1436 1.08325 10.421H2.58325C2.58325 10.2494 2.58347 10.1483 2.5873 10.0724C2.59087 10.0017 2.59628 9.99126 2.59326 10.0016L1.15332 9.5814ZM2.1783 8.44882C1.68121 8.64944 1.30348 9.06682 1.15332 9.5814L2.59326 10.0016C2.61471 9.92809 2.66867 9.86846 2.73969 9.8398L2.1783 8.44882ZM3.00671 8.29556C2.73077 8.32315 2.43496 8.34523 2.1783 8.44882L2.73969 9.8398C2.7297 9.84383 2.73959 9.83741 2.80955 9.82683C2.88472 9.81546 2.98526 9.80519 3.15597 9.78811L3.00671 8.29556ZM3.08134 8.29184H3.08134V9.79184H3.08134V8.29184ZM3.82118 8.19266C3.84996 8.17633 3.83625 8.19376 3.68007 8.21883C3.53004 8.24291 3.32488 8.26374 3.00672 8.29556L3.15597 9.78811C3.45525 9.75819 3.71316 9.73271 3.91778 9.69987C4.11624 9.66802 4.34874 9.61791 4.56122 9.4974L3.82118 8.19266ZM3.93882 7.90865C3.96932 8.01909 3.92084 8.13613 3.82118 8.19266L4.56122 9.49739C5.25885 9.10171 5.5982 8.28243 5.3847 7.50934L3.93882 7.90865ZM3.43562 7.25991C3.63811 7.5074 3.76847 7.66722 3.85754 7.79034C3.95026 7.91853 3.94763 7.94055 3.93882 7.90865L5.3847 7.50934C5.31967 7.27387 5.19069 7.07403 5.07287 6.91117C4.9514 6.74325 4.78703 6.54285 4.59656 6.31005L3.43562 7.25991ZM2.95812 6.56561C3.06637 6.8204 3.25997 7.04523 3.43562 7.25991L4.59656 6.31005C4.48789 6.17724 4.42405 6.09886 4.37892 6.03765C4.33692 5.98069 4.33447 5.96915 4.33868 5.97906L2.95812 6.56561ZM3.0342 5.04013C2.77657 5.51014 2.74853 6.0723 2.95812 6.56561L4.33868 5.97906C4.30874 5.90859 4.31275 5.82828 4.34955 5.76114L3.0342 5.04013ZM3.57839 4.39681C3.38227 4.59294 3.16727 4.79737 3.0342 5.04013L4.34955 5.76114C4.34438 5.77058 4.34796 5.75934 4.39542 5.70684C4.44641 5.65043 4.51772 5.57881 4.63905 5.45747L3.57839 4.39681ZM4.39727 3.57794L3.57839 4.39681L4.63905 5.45747L5.45793 4.6386L4.39727 3.57794ZM5.0403 3.03395C4.79767 3.16699 4.59331 3.38189 4.39727 3.57794L5.45793 4.6386C5.57921 4.51732 5.65081 4.44603 5.70719 4.39506C5.75967 4.34763 5.7709 4.34404 5.76146 4.34921L5.0403 3.03395ZM6.56615 2.95785C6.07273 2.74814 5.51041 2.77619 5.0403 3.03395L5.76146 4.34921C5.82862 4.31239 5.90895 4.30838 5.97944 4.33834L6.56615 2.95785ZM7.26019 3.43521C7.04558 3.25962 6.82082 3.06608 6.56615 2.95785L5.97944 4.33834C5.96953 4.33413 5.98106 4.33658 6.03802 4.37857C6.09921 4.42369 6.17757 4.48752 6.31034 4.59615L7.26019 3.43521ZM7.90859 3.93817C7.94048 3.94698 7.91847 3.9496 7.79035 3.85691C7.66729 3.76788 7.50755 3.63759 7.26019 3.43521L6.31034 4.59615C6.54302 4.78652 6.7433 4.9508 6.91112 5.07221C7.07387 5.18996 7.27358 5.31888 7.50889 5.38393L7.90859 3.93817ZM8.1927 3.82049C8.13617 3.92021 8.01907 3.96871 7.90859 3.93817L7.50889 5.38394C8.28227 5.59774 9.10197 5.25821 9.49764 4.56017L8.1927 3.82049ZM8.29552 3.00655C8.26373 3.3245 8.2429 3.52953 8.21885 3.67946C8.1938 3.83554 8.17639 3.84925 8.1927 3.82049L9.49764 4.56017C9.61802 4.34779 9.66808 4.11544 9.6999 3.91711C9.73271 3.71263 9.75817 3.45488 9.78808 3.1558L8.29552 3.00655ZM8.44863 2.17866C8.34516 2.43518 8.3231 2.73079 8.29552 3.00655L9.78808 3.1558C9.80514 2.98521 9.81541 2.88474 9.82676 2.80962C9.83733 2.7397 9.84375 2.72981 9.83972 2.73979L8.44863 2.17866ZM9.58166 1.15329C9.06682 1.30342 8.64925 1.68132 8.44863 2.17866L9.83972 2.73979C9.86838 2.66874 9.92804 2.61476 10.0016 2.59331L9.58166 1.15329ZM10.4207 1.08331C10.1435 1.08331 9.8472 1.07585 9.58166 1.15329L10.0016 2.59331C9.99125 2.59632 10.0017 2.59092 10.0724 2.58736C10.1482 2.58353 10.2492 2.58331 10.4207 2.58331V1.08331ZM11.579 1.08331H10.4207V2.58331H11.579V1.08331ZM12.4183 1.15334C12.1527 1.07585 11.8563 1.08331 11.579 1.08331V2.58331C11.7506 2.58331 11.8516 2.58353 11.9275 2.58736C11.9981 2.59093 12.0086 2.59633 11.9983 2.59332L12.4183 1.15334ZM13.5511 2.1785C13.3505 1.68129 12.933 1.30348 12.4183 1.15334L11.9983 2.59332C12.0718 2.61477 12.1314 2.66874 12.1601 2.73977L13.5511 2.1785ZM13.9166 11C13.9166 12.6108 12.6107 13.9166 10.9999 13.9166V15.4166C13.4392 15.4166 15.4166 13.4392 15.4166 11H13.9166ZM10.9999 8.08331C12.6107 8.08331 13.9166 9.38915 13.9166 11H15.4166C15.4166 8.56072 13.4392 6.58331 10.9999 6.58331V8.08331ZM8.08325 11C8.08325 9.38915 9.38909 8.08331 10.9999 8.08331V6.58331C8.56066 6.58331 6.58325 8.56072 6.58325 11H8.08325ZM10.9999 13.9166C9.38909 13.9166 8.08325 12.6108 8.08325 11H6.58325C6.58325 13.4392 8.56066 15.4166 10.9999 15.4166V13.9166Z" fill="#777E90"/>
</svg>
