<svg width="20" height="20" viewBox="0 0 20 20" fill="none" xmlns="http://www.w3.org/2000/svg">
<g id="stickers">
<path id="Vector (Stroke)" fill-rule="evenodd" clip-rule="evenodd" d="M0.833496 10C0.833496 4.9374 4.93755 0.833344 10.0002 0.833344C10.2212 0.833344 10.4331 0.921141 10.5894 1.07742L18.9228 9.41075C19.079 9.56703 19.1668 9.779 19.1668 10C19.1668 15.0626 15.0628 19.1667 10.0002 19.1667C4.93755 19.1667 0.833496 15.0626 0.833496 10ZM8.90575 2.57929C5.28236 3.10904 2.50016 6.22961 2.50016 10C2.50016 14.1421 5.85802 17.5 10.0002 17.5C13.7975 17.5 16.9358 14.6778 17.4319 11.0165C16.9773 11.0744 16.4084 11.1162 15.7772 11.0932C14.2216 11.0366 12.1997 10.5807 10.6395 8.90039C9.0972 7.23944 8.74739 5.33871 8.77637 3.8896C8.78622 3.397 8.83959 2.95222 8.90575 2.57929ZM10.4815 3.32648L16.5761 9.42117C16.3456 9.4333 16.0976 9.43709 15.8377 9.42764C14.5287 9.38004 13.0089 9.0027 11.8608 7.7663C10.6948 6.51058 10.4196 5.07797 10.4427 3.92292C10.4469 3.71257 10.4611 3.51268 10.4815 3.32648Z" fill="black" fill-opacity="0.4"/>
</g>
</svg>
