<svg width="22" height="22" viewBox="0 0 22 22" fill="none" xmlns="http://www.w3.org/2000/svg">
<path fill-rule="evenodd" clip-rule="evenodd" d="M11.0331 1.83334H10.9677C7.87933 1.83334 5.04766 4.07419 4.77294 7.04088C4.75461 7.25311 4.74213 7.46997 4.73406 7.70358L4.72277 8.24976L4.72054 8.73946L4.73433 8.68363C4.60688 9.30513 4.31314 9.8816 3.88348 10.3526L3.82191 10.4318C3.45403 10.9907 3.24265 11.6376 3.20993 12.3055L3.20916 12.5239C3.19038 13.4024 3.49141 14.2717 4.05774 14.9621C4.82573 15.773 5.81987 16.2567 6.88687 16.3593C9.61581 16.6557 12.3768 16.6557 15.1134 16.3586C16.1731 16.261 17.1702 15.7759 17.906 14.995C18.4615 14.3303 18.7648 13.5327 18.7907 12.7069L18.7916 12.3372C18.7612 11.6398 18.5485 10.9924 18.1762 10.4359L18.1197 10.3633L17.9815 10.2009C17.6711 9.81314 17.4444 9.36652 17.3154 8.88881L17.2746 8.71729L17.2661 8.5374C17.2636 8.4565 17.2623 8.36678 17.2619 8.25473L17.2618 7.63772C17.2597 7.4017 17.2527 7.23386 17.2364 7.04492C16.9523 4.07262 14.1198 1.83334 11.0331 1.83334ZM10.9677 3.11241H11.0331C13.5058 3.11241 15.7615 4.89569 15.9781 7.16216C15.991 7.31095 15.9967 7.45291 15.9984 7.66379L16.0009 8.49304C16.0036 8.62566 16.0088 8.73595 16.0177 8.86005L16.0295 8.94499L16.089 9.1978C16.2653 9.86654 16.5819 10.4904 17.0176 11.0283L17.144 11.1765L17.13 11.1532C17.3718 11.5145 17.5095 11.9337 17.5287 12.366L17.5281 12.5158C17.5426 13.1172 17.3433 13.6886 16.966 14.1411C16.4675 14.6685 15.7548 15.0152 14.9887 15.0858C12.3316 15.3742 9.66099 15.3742 7.01403 15.0868C6.23958 15.0122 5.5264 14.6653 4.99921 14.1103C4.65745 13.691 4.4602 13.1214 4.47259 12.5376L4.47273 12.3372L4.48875 12.1625C4.52731 11.8704 4.62493 11.5743 4.77623 11.3017L4.85297 11.1747C5.41547 10.542 5.8015 9.7727 5.97153 8.94361L5.98472 8.81362L5.9907 7.97096L6.00542 7.54343C6.01209 7.40857 6.02064 7.28042 6.03136 7.15621C6.24069 4.8958 8.49429 3.11241 10.9677 3.11241ZM4.85297 11.1747C4.83936 11.19 4.82565 11.2052 4.81184 11.2203L4.85701 11.168L4.85297 11.1747ZM13.3906 18.0497C13.1187 17.8283 12.721 17.8719 12.5023 18.1471C12.4075 18.2664 12.2978 18.3734 12.1757 18.4655C11.7615 18.7904 11.2447 18.935 10.7308 18.8738C10.2178 18.8127 9.75141 18.5516 9.43496 18.1495C9.21754 17.8732 8.82005 17.8277 8.54715 18.0478C8.27424 18.2679 8.22927 18.6703 8.44669 18.9465C8.97141 19.6132 9.74028 20.0437 10.5832 20.1441C11.4253 20.2444 12.2733 20.0071 12.9403 19.4838C13.1383 19.3345 13.3252 19.1523 13.4868 18.9489C13.7056 18.6737 13.6625 18.2711 13.3906 18.0497Z" fill="black"/>
</svg>
