<svg width="20" height="20" viewBox="0 0 20 20" fill="none" xmlns="http://www.w3.org/2000/svg">
<path d="M9.57686 2.32417H6.46103C3.89853 2.32417 2.29186 4.13834 2.29186 6.70667V13.635C2.29186 16.2033 3.89103 18.0175 6.46103 18.0175H13.8144C16.3852 18.0175 17.9844 16.2033 17.9844 13.635V10.2783" stroke="white" stroke-width="1.5" stroke-linecap="round" stroke-linejoin="round"/>
<path fill-rule="evenodd" clip-rule="evenodd" d="M7.35655 9.10075L13.5841 2.87325C14.3599 2.09825 15.6174 2.09825 16.3932 2.87325L17.4074 3.88742C18.1832 4.66325 18.1832 5.92158 17.4074 6.69658L11.1499 12.9541C10.8107 13.2933 10.3507 13.4841 9.87072 13.4841H6.74905L6.82738 10.3341C6.83905 9.87075 7.02822 9.42909 7.35655 9.10075Z" stroke="white" stroke-width="1.5" stroke-linecap="round" stroke-linejoin="round"/>
<path d="M12.6376 3.83541L16.4426 7.64041" stroke="white" stroke-width="1.5" stroke-linecap="round" stroke-linejoin="round"/>
</svg>
