<svg width="12" height="13" viewBox="0 0 12 13" fill="none" xmlns="http://www.w3.org/2000/svg">
<path fill-rule="evenodd" clip-rule="evenodd" d="M10.6314 1.70774C10.6314 1.48863 10.4276 1.32625 10.2137 1.37484L4.74656 2.61605C4.5909 2.65139 4.48042 2.78959 4.48042 2.94895V11.0071H4.48008C4.48914 11.747 3.72482 12.5167 2.63395 12.8085C1.41625 13.1343 0.252797 12.7413 0.0352817 11.9308C-0.182237 11.1203 0.628554 10.1992 1.84623 9.87343C2.28995 9.75472 2.72648 9.73147 3.11264 9.78903V2.94895C3.11264 2.15205 3.66495 1.46115 4.44329 1.28444L9.91035 0.0432137C10.9803 -0.199703 11.9992 0.61223 11.9992 1.70774V9.34169C12.0279 10.0899 11.2582 10.8752 10.1537 11.1707C8.93604 11.4964 7.77261 11.1035 7.55509 10.293C7.33758 9.48249 8.14837 8.56134 9.36604 8.23557C9.80937 8.117 10.2455 8.09365 10.6314 8.15104V1.70774Z" fill="white" fill-opacity="0.9"/>
</svg>
